<svg width="119" height="30" viewBox="0 0 119 30" fill="none" xmlns="http://www.w3.org/2000/svg">
<path fill-rule="evenodd" clip-rule="evenodd" d="M46.7691 20.6244L46.5683 20.0514C46.4343 19.6695 46.2806 19.2296 46.1071 18.7316C45.9336 18.2335 45.7799 17.7936 45.646 17.4116L45.4451 16.8388H40.2036L38.8795 20.6244H37.1537L42.0117 7.39769H43.6371L48.495 20.6244H46.7691ZM42.7974 9.40521L42.5829 10.0148C42.4398 10.4211 42.2648 10.9237 42.0578 11.5225C41.8508 12.1214 41.6423 12.7203 41.4323 13.3191C41.2223 13.918 41.0457 14.4206 40.9027 14.827L40.6881 15.4365H44.9616L42.8522 9.40521H42.7974ZM54.7591 10.6517C56.0136 10.6517 57.0298 11.1131 57.8091 12.0358C58.5883 12.9585 58.9779 14.1746 58.9779 15.6839C58.9779 17.1933 58.5915 18.4093 57.8182 19.332C57.0454 20.2547 56.0376 20.716 54.7961 20.716C54.0961 20.716 53.4747 20.5679 52.9331 20.2715C52.3915 19.9751 51.9649 19.5581 51.6545 19.0203H51.6182V23.9241H50.0292V10.7434H51.5357V12.3475H51.5727C51.8584 11.8342 52.2909 11.4232 52.8695 11.1146C53.4474 10.8061 54.0773 10.6517 54.7591 10.6517ZM54.4667 19.2952C55.3375 19.2952 56.0362 18.9668 56.5628 18.3098C57.0895 17.6529 57.3524 16.7776 57.3524 15.6838C57.3524 14.59 57.0895 13.7146 56.5628 13.0577C56.0362 12.4008 55.3375 12.0724 54.4667 12.0724C53.6206 12.0724 52.933 12.4054 52.4031 13.0715C51.8739 13.7375 51.609 14.6083 51.609 15.6838C51.609 16.7592 51.8739 17.63 52.4031 18.2961C52.933 18.9622 53.6206 19.2952 54.4667 19.2952ZM65.6078 10.6517C66.8617 10.6517 67.8786 11.1131 68.6578 12.0358C69.437 12.9585 69.8266 14.1746 69.8266 15.6839C69.8266 17.1933 69.4396 18.4093 68.6669 19.332C67.8935 20.2547 66.8864 20.716 65.6442 20.716C64.9442 20.716 64.3234 20.5679 63.7812 20.2715C63.2396 19.9751 62.8137 19.5581 62.5026 19.0203H62.4663V23.9241H60.8773V10.7434H62.3844V12.3475H62.4208C62.7072 11.8342 63.139 11.4232 63.7176 11.1146C64.2955 10.8061 64.926 10.6517 65.6078 10.6517ZM65.3159 19.2952C66.1861 19.2952 66.8848 18.9668 67.4114 18.3098C67.938 17.6529 68.201 16.7776 68.201 15.6838C68.201 14.59 67.938 13.7146 67.4114 13.0577C66.8848 12.4008 66.1861 12.0724 65.3159 12.0724C64.4698 12.0724 63.7815 12.4054 63.2523 13.0715C62.7224 13.7375 62.4575 14.6083 62.4575 15.6838C62.4575 16.7592 62.7224 17.63 63.2523 18.2961C63.7815 18.9622 64.4698 19.2952 65.3159 19.2952ZM75.9995 16.9854C76.0787 18.1525 76.5638 19.0875 77.456 19.7902C78.3476 20.493 79.4904 20.8443 80.8846 20.8443C82.4008 20.8443 83.6015 20.4914 84.4872 19.7856C85.3729 19.0799 85.8157 18.122 85.8157 16.9121C85.8157 15.9649 85.5177 15.2072 84.9209 14.6389C84.3242 14.0706 83.3443 13.6153 81.9807 13.2731L80.6015 12.9065C79.7067 12.6743 79.0632 12.3978 78.6703 12.0769C78.2774 11.7562 78.0813 11.3452 78.0813 10.8442C78.0813 10.1964 78.3508 9.67091 78.8898 9.2676C79.4281 8.86429 80.1235 8.6626 80.9761 8.6626C81.8346 8.6626 82.5313 8.86734 83.067 9.27676C83.6028 9.68617 83.9073 10.2453 83.9807 10.9542H85.6242C85.5878 9.84195 85.1398 8.93455 84.282 8.23182C83.4235 7.5291 82.3398 7.17773 81.0307 7.17773C79.6612 7.17773 78.5424 7.52605 77.6748 8.22267C76.8073 8.91929 76.3736 9.81753 76.3736 10.9175C76.3736 12.6468 77.5424 13.8109 79.88 14.4097L81.5696 14.8497C82.4586 15.0758 83.1054 15.3691 83.5099 15.7297C83.9151 16.0902 84.117 16.5515 84.117 17.1137C84.117 17.7615 83.8268 18.2976 83.2456 18.7224C82.6638 19.1471 81.9287 19.3594 81.0398 19.3594C80.1028 19.3594 79.3235 19.1425 78.7021 18.7086C78.0813 18.2747 77.7313 17.7004 77.6521 16.9854H75.9995ZM88.2807 8.51601V10.7433H86.9112V12.0633H88.2807V18.0579C88.2807 19.005 88.471 19.6818 88.8515 20.0881C89.232 20.4945 89.8664 20.6977 90.7554 20.6977C90.9444 20.6977 91.1372 20.69 91.3353 20.6748C91.5333 20.6595 91.6807 20.6396 91.7781 20.6152V19.2677C91.7236 19.2739 91.6197 19.2831 91.4677 19.2953C91.3151 19.3075 91.1905 19.3136 91.0931 19.3136C90.6729 19.3136 90.3645 19.2066 90.1664 18.9928C89.9684 18.7789 89.8697 18.4459 89.8697 17.9937V12.0633H91.7872V10.7433H89.8697V8.51601H88.2807ZM97.8321 20.716C96.4503 20.716 95.3484 20.2593 94.527 19.3457C93.7049 18.4322 93.2938 17.2116 93.2938 15.6839C93.2938 14.1501 93.7049 12.928 94.527 12.0175C95.3484 11.107 96.4503 10.6517 97.8321 10.6517C99.2146 10.6517 100.316 11.107 101.138 12.0175C101.96 12.928 102.37 14.1501 102.37 15.6839C102.37 17.2116 101.96 18.4322 101.138 19.3457C100.316 20.2593 99.2146 20.716 97.8321 20.716ZM97.8318 19.2952C98.7513 19.2952 99.4682 18.9759 99.9825 18.3374C100.497 17.6988 100.754 16.8142 100.754 15.6838C100.754 14.5472 100.497 13.6611 99.9825 13.0256C99.4682 12.3901 98.7513 12.0724 97.8318 12.0724C96.913 12.0724 96.1961 12.3917 95.6818 13.0302C95.1669 13.6688 94.9098 14.5533 94.9098 15.6838C94.9098 16.8142 95.1688 17.6988 95.6864 18.3374C96.2039 18.9759 96.9188 19.2952 97.8318 19.2952ZM104.27 20.6244H105.859V14.5107C105.859 13.814 106.052 13.2518 106.438 12.8241C106.825 12.3963 107.338 12.1825 107.977 12.1825C108.172 12.1825 108.35 12.1916 108.512 12.2099C108.673 12.2283 108.784 12.2497 108.845 12.2741V10.7067C108.778 10.6945 108.687 10.6823 108.571 10.6701C108.455 10.6578 108.327 10.6517 108.187 10.6517C107.615 10.6517 107.111 10.8045 106.676 11.11C106.241 11.4156 105.95 11.8281 105.804 12.3475H105.768V10.7434H104.27V20.6244ZM114.351 12.0541C113.578 12.0541 112.937 12.3108 112.429 12.8241C111.921 13.3374 111.639 14.0126 111.585 14.8498H117C116.981 14.0126 116.73 13.3374 116.246 12.8241C115.762 12.3108 115.13 12.0541 114.351 12.0541ZM116.963 17.8012H118.534C118.4 18.6507 117.949 19.3488 117.182 19.8957C116.416 20.4426 115.505 20.716 114.452 20.716C113.07 20.716 111.973 20.2654 111.16 19.3641C110.347 18.4627 109.941 17.2483 109.941 15.7205C109.941 14.1868 110.346 12.9585 111.156 12.0358C111.965 11.1131 113.04 10.6517 114.379 10.6517C115.694 10.6517 116.735 11.0856 117.502 11.9533C118.269 12.8211 118.653 14.0035 118.653 15.5006V16.1238H111.585V16.2155C111.585 17.1566 111.849 17.9082 112.379 18.4704C112.909 19.0325 113.612 19.3136 114.488 19.3136C115.103 19.3136 115.634 19.1777 116.082 18.9058C116.529 18.6338 116.823 18.2657 116.963 17.8012Z" fill="black"/>
<path fill-rule="evenodd" clip-rule="evenodd" d="M18.1994 0C16.6897 0.0633116 14.8604 1.00558 13.7778 2.27233C12.8045 3.39733 11.955 5.19272 12.184 6.91421C13.8695 7.04609 15.587 6.05875 16.6362 4.79135C17.6833 3.52168 18.3922 1.75961 18.1994 0ZM17.7726 29.96C19.8181 29.9218 21.1137 28.1042 22.3661 26.2754C23.7384 24.2723 24.3444 22.3302 24.4349 22.0404C24.4399 22.0243 24.4433 22.0133 24.4452 22.0076C24.4443 22.0072 24.4418 22.0062 24.4377 22.0045C24.2415 21.9248 20.4548 20.387 20.4172 15.9411C20.3802 12.2694 23.3114 10.4432 23.6332 10.2427C23.6444 10.2358 23.6524 10.2308 23.657 10.2277C21.8933 7.65071 19.147 7.2974 18.1684 7.25701C16.7391 7.11261 15.3524 7.65849 14.2193 8.1045C13.4993 8.38793 12.8818 8.63103 12.4208 8.63103C11.9078 8.63103 11.2733 8.37944 10.5612 8.09709C9.62925 7.72754 8.5644 7.30531 7.46505 7.32551C4.91869 7.36363 2.56889 8.80616 1.25753 11.0861C-1.39064 15.677 0.578443 22.4798 3.15824 26.2022C4.42103 28.0228 5.92259 30.0718 7.89733 29.9981C8.77901 29.9627 9.4065 29.6957 10.0554 29.4197C10.8054 29.1006 11.5841 28.7693 12.817 28.7693C13.9911 28.7693 14.7337 29.0903 15.448 29.3991C16.1312 29.6945 16.7884 29.9786 17.7726 29.96Z" fill="black"/>
</svg>
