<svg width="127" height="30" viewBox="0 0 127 30" fill="none" xmlns="http://www.w3.org/2000/svg">
<path fill-rule="evenodd" clip-rule="evenodd" d="M104.973 15.5476C104.973 16.1992 104.895 16.7947 104.741 17.3342C104.586 17.8736 104.359 18.3369 104.061 18.7241C103.763 19.1113 103.399 19.4131 102.969 19.6294C102.538 19.8457 102.047 19.9539 101.496 19.9539C100.843 19.9539 100.279 19.8431 99.8037 19.6214C99.3282 19.3998 98.936 19.094 98.6264 18.7041V23.1264H97.6224V11.1254H98.5586L98.6094 12.3511C98.919 11.9185 99.3099 11.5793 99.7827 11.3336C100.256 11.088 100.818 10.9651 101.471 10.9651C102.028 10.9651 102.524 11.0693 102.96 11.2776C103.396 11.4858 103.763 11.7823 104.061 12.1668C104.359 12.5513 104.586 13.0147 104.741 13.5568C104.895 14.0989 104.973 14.7064 104.973 15.3794V15.5476ZM103.96 15.3795C103.96 14.8775 103.906 14.4075 103.796 13.9695C103.686 13.5316 103.52 13.1523 103.298 12.8319C103.076 12.5114 102.793 12.2591 102.45 12.0748C102.106 11.8906 101.704 11.7984 101.243 11.7984C100.877 11.7984 100.554 11.8438 100.272 11.9346C99.9908 12.0254 99.7449 12.1469 99.5335 12.2991C99.3229 12.4513 99.1427 12.6276 98.9936 12.8279C98.8446 13.0282 98.722 13.2378 98.6265 13.4568V17.6147C98.7335 17.8336 98.867 18.0366 99.0275 18.2236C99.1881 18.4105 99.3764 18.572 99.5932 18.7083C99.8093 18.8444 100.056 18.9512 100.332 19.0287C100.607 19.1061 100.916 19.1449 101.26 19.1449C101.721 19.1449 102.121 19.0527 102.458 18.8685C102.795 18.6842 103.076 18.4305 103.298 18.1074C103.52 17.7843 103.686 17.4038 103.796 16.9657C103.906 16.5278 103.96 16.0551 103.96 15.5478V15.3795ZM108.34 19.7937H107.328V7.48828H108.34V19.7937ZM116.847 19.7936C116.79 19.6441 116.747 19.4612 116.716 19.2449C116.685 19.0286 116.664 18.8083 116.653 18.584C116.501 18.7709 116.321 18.9471 116.113 19.1127C115.904 19.2783 115.671 19.4225 115.413 19.5453C115.154 19.6682 114.869 19.7669 114.56 19.8417C114.251 19.9165 113.916 19.9539 113.556 19.9539C113.111 19.9539 112.708 19.8925 112.345 19.7697C111.981 19.6468 111.673 19.4746 111.417 19.2529C111.16 19.0313 110.962 18.7709 110.821 18.4718C110.681 18.1727 110.61 17.8469 110.61 17.4944C110.61 17.0724 110.706 16.6919 110.897 16.3528C111.089 16.0136 111.364 15.7252 111.724 15.4876C112.084 15.2498 112.522 15.0683 113.037 14.9428C113.552 14.8172 114.13 14.7545 114.771 14.7545H116.645V13.7691C116.645 13.1496 116.444 12.6622 116.041 12.307C115.639 11.9518 115.052 11.7743 114.281 11.7743C113.927 11.7743 113.601 11.8197 113.302 11.9104C113.004 12.0013 112.747 12.1267 112.53 12.287C112.313 12.4472 112.145 12.6328 112.024 12.8438C111.903 13.0547 111.843 13.2804 111.843 13.5207L110.83 13.5127C110.83 13.187 110.914 12.8718 111.083 12.5674C111.252 12.263 111.49 11.9919 111.796 11.7542C112.103 11.5166 112.471 11.3256 112.901 11.1814C113.332 11.0372 113.809 10.9651 114.332 10.9651C114.816 10.9651 115.262 11.0239 115.67 11.1414C116.078 11.2589 116.428 11.4351 116.721 11.6701C117.013 11.9052 117.241 12.1989 117.404 12.5513C117.567 12.9039 117.649 13.3151 117.649 13.7851V17.9831C117.649 18.1327 117.654 18.2875 117.666 18.4477C117.677 18.6079 117.696 18.7629 117.721 18.9124C117.746 19.062 117.775 19.2048 117.809 19.3411C117.843 19.4772 117.882 19.596 117.927 19.6975V19.7936H116.847ZM113.674 19.1048C114.04 19.1048 114.378 19.0607 114.691 18.9726C115.003 18.8845 115.286 18.763 115.539 18.6081C115.792 18.4532 116.012 18.273 116.197 18.0674C116.383 17.8617 116.532 17.6388 116.645 17.3984V15.4917H114.915C114.397 15.4917 113.934 15.5357 113.526 15.6238C113.118 15.712 112.773 15.8388 112.492 16.0044C112.211 16.17 111.996 16.3716 111.847 16.6093C111.698 16.8469 111.623 17.1153 111.623 17.4144C111.623 17.6494 111.671 17.8697 111.767 18.0753C111.862 18.2809 111.999 18.4599 112.176 18.6121C112.353 18.7644 112.568 18.8845 112.822 18.9726C113.075 19.0607 113.359 19.1048 113.674 19.1048ZM123.236 18.4158L125.903 11.1255H126.991L123.126 21.1798C123.047 21.3774 122.948 21.599 122.827 21.8447C122.706 22.0904 122.548 22.3201 122.354 22.5337C122.16 22.7473 121.918 22.9276 121.628 23.0745C121.338 23.2213 120.985 23.2948 120.569 23.2948C120.513 23.2948 120.448 23.2908 120.375 23.2828C120.302 23.2748 120.229 23.2654 120.155 23.2547C120.082 23.244 120.013 23.232 119.949 23.2187C119.884 23.2053 119.832 23.1933 119.792 23.1826L119.784 22.3895C119.852 22.4001 119.943 22.4109 120.059 22.4216C120.174 22.4322 120.257 22.4375 120.307 22.4375C120.577 22.4375 120.817 22.4042 121.025 22.3374C121.233 22.2706 121.415 22.1719 121.569 22.041C121.724 21.9102 121.861 21.7459 121.978 21.5483C122.097 21.3507 122.203 21.1237 122.299 20.8674L122.738 19.7217L119.294 11.1255H120.4L123.236 18.4158Z" fill="black"/>
<path fill-rule="evenodd" clip-rule="evenodd" d="M0 2.05522V27.9478C0 28.849 0.528387 29.6282 1.29597 30L16.4905 14.9971L1.30207 0C0.531232 0.370616 0 1.15168 0 2.05522ZM4.85035 29.0322L21.3408 19.8225L17.856 16.4516L4.85035 29.0322ZM26.3083 13.6431C26.8264 14.0672 27.1607 14.7355 27.1607 15.4872C27.1607 16.2276 26.8366 16.8869 26.3317 17.3118L23.0222 19.3549L19.4006 15.4827L23.0197 11.6129L26.3083 13.6431ZM21.3408 10.1773L4.85035 0.967553L17.856 13.5483L21.3408 10.1773Z" fill="black"/>
<path fill-rule="evenodd" clip-rule="evenodd" d="M59.7088 20.4845C61.9884 20.4845 63.8458 18.7336 63.8458 16.3574C63.8458 13.9646 61.9884 12.2305 59.7088 12.2305C57.43 12.2305 55.5725 13.9646 55.5725 16.3574C55.5725 18.7336 57.43 20.4845 59.7088 20.4845ZM59.7088 13.8566C60.9587 13.8566 62.0351 14.8726 62.0351 16.3574C62.0351 17.8255 60.9587 18.8582 59.7088 18.8582C58.4597 18.8582 57.3832 17.8274 57.3832 16.3574C57.3832 14.8726 58.4597 13.8566 59.7088 13.8566Z" fill="black"/>
<path fill-rule="evenodd" clip-rule="evenodd" d="M68.9014 20.4845C71.1809 20.4845 73.0384 18.7336 73.0384 16.3574C73.0384 13.9646 71.1809 12.2305 68.9014 12.2305C66.6219 12.2305 64.7644 13.9665 64.7644 16.3574C64.7644 18.7336 66.6219 20.4845 68.9014 20.4845ZM68.9011 13.8566C70.1503 13.8566 71.2274 14.8726 71.2274 16.3574C71.2274 17.8255 70.1503 18.8582 68.9011 18.8582C67.652 18.8582 66.5756 17.8274 66.5756 16.3574C66.5756 14.8726 67.652 13.8566 68.9011 13.8566Z" fill="black"/>
<path fill-rule="evenodd" clip-rule="evenodd" d="M82.231 19.8707V12.481H80.4311V13.1511H80.3654C79.9393 12.6667 79.1216 12.2305 78.0926 12.2305C75.9344 12.2305 73.9576 14.0384 73.9576 16.3624C73.9576 18.6697 75.9344 20.4628 78.0926 20.4628C79.1236 20.4628 79.9413 20.0266 80.3654 19.5272H80.4311V20.1194C80.4311 21.6953 79.5497 22.5325 78.1278 22.5325C76.9681 22.5325 76.248 21.7417 75.954 21.0716L74.3038 21.7269C74.7787 22.8183 76.038 24.1529 78.1292 24.1529C80.3518 24.1529 82.231 22.9111 82.231 19.8707ZM78.262 13.8529C79.5518 13.8529 80.5659 14.9127 80.5659 16.3624C80.5659 17.7973 79.5518 18.8423 78.262 18.8423C76.9546 18.8423 75.8585 17.7973 75.8585 16.3624C75.8585 14.9127 76.9546 13.8529 78.262 13.8529Z" fill="black"/>
<path d="M84.9889 8.5625V19.5679H83.1504V8.5625H84.9889Z" fill="black"/>
<path fill-rule="evenodd" clip-rule="evenodd" d="M93.1868 18.6555L91.8279 17.7176C91.3747 18.4061 90.7563 18.8601 89.8648 18.8601C88.9753 18.8601 88.3406 18.4377 87.9321 17.6097L93.2627 15.3248L93.0812 14.8559C92.7499 13.9349 91.7378 12.2305 89.669 12.2305C87.6144 12.2305 85.908 13.9032 85.908 16.3574C85.908 18.6722 87.5995 20.4845 89.8648 20.4845C91.6911 20.4845 92.7485 19.3271 93.1868 18.6555ZM91.207 14.7014L87.6444 16.2327C87.5991 14.64 88.8381 13.8269 89.7275 13.8269C90.4219 13.8269 91.0112 14.186 91.207 14.7014Z" fill="black"/>
<path d="M48.9221 14.7328V13.104H54.569C54.6239 13.3879 54.6523 13.7237 54.6523 14.0871C54.6523 15.3092 54.3089 16.8202 53.2012 17.8969C52.1239 18.9874 50.7473 19.5689 48.9239 19.5689C45.544 19.5689 42.7019 16.8929 42.7019 13.6077C42.7019 10.3224 45.544 7.64648 48.9239 7.64648C50.7937 7.64648 52.1256 8.3596 53.1264 9.28909L51.944 10.4384C51.2263 9.78415 50.2541 9.2752 48.9221 9.2752C46.454 9.2752 44.5236 11.2086 44.5236 13.6077C44.5236 16.0067 46.454 17.9401 48.9221 17.9401C50.523 17.9401 51.4347 17.3153 52.0188 16.7475C52.4925 16.2871 52.8041 15.6294 52.927 14.7311L48.9221 14.7328Z" fill="black"/>
</svg>
